<svg width="1194" height="248" viewBox="0 0 1194 248" fill="none" xmlns="http://www.w3.org/2000/svg">
<path d="M20.3 40.975C14.6667 40.975 9.9 39.025 6 35.125C2.1 31.225 0.150001 26.4583 0.150001 20.825C0.150001 15.1917 2.1 10.425 6 6.52499C9.9 2.62499 14.6667 0.674988 20.3 0.674988C25.7167 0.674988 30.2667 2.62499 33.95 6.52499C37.85 10.425 39.8 15.1917 39.8 20.825C39.8 26.4583 37.85 31.225 33.95 35.125C30.2667 39.025 25.7167 40.975 20.3 40.975ZM34.6 69.9V248H5.025V69.9H34.6ZM171.78 66.65C193.447 66.65 210.997 73.2583 224.43 86.475C237.864 99.475 244.58 118.325 244.58 143.025V248H215.33V147.25C215.33 129.483 210.889 115.942 202.005 106.625C193.122 97.0917 180.989 92.325 165.605 92.325C150.005 92.325 137.547 97.2 128.23 106.95C119.13 116.7 114.58 130.892 114.58 149.525V248H85.0055V69.9H114.58V95.25C120.43 86.15 128.339 79.1083 138.305 74.125C148.489 69.1417 159.647 66.65 171.78 66.65ZM328.966 94.275V199.25C328.966 207.917 330.808 214.092 334.491 217.775C338.175 221.242 344.566 222.975 353.666 222.975H375.441V248H348.791C332.325 248 319.975 244.208 311.741 236.625C303.508 229.042 299.391 216.583 299.391 199.25V94.275H276.316V69.9H299.391V25.05H328.966V69.9H375.441V94.275H328.966ZM573.775 152.125C573.775 157.758 573.45 163.717 572.8 170H430.45C431.533 187.55 437.492 201.308 448.325 211.275C459.375 221.025 472.7 225.9 488.3 225.9C501.083 225.9 511.7 222.975 520.15 217.125C528.817 211.058 534.883 203.042 538.35 193.075H570.2C565.433 210.192 555.9 224.167 541.6 235C527.3 245.617 509.533 250.925 488.3 250.925C471.4 250.925 456.233 247.133 442.8 239.55C429.583 231.967 419.183 221.242 411.6 207.375C404.017 193.292 400.225 177.042 400.225 158.625C400.225 140.208 403.908 124.067 411.275 110.2C418.642 96.3333 428.933 85.7167 442.15 78.35C455.583 70.7667 470.967 66.975 488.3 66.975C505.2 66.975 520.15 70.6583 533.15 78.025C546.15 85.3917 556.117 95.575 563.05 108.575C570.2 121.358 573.775 135.875 573.775 152.125ZM543.225 145.95C543.225 134.683 540.733 125.042 535.75 117.025C530.767 108.792 523.942 102.617 515.275 98.5C506.825 94.1667 497.4 92 487 92C472.05 92 459.267 96.7667 448.65 106.3C438.25 115.833 432.292 129.05 430.775 145.95H543.225ZM642.388 98.825C647.588 88.6417 654.955 80.7333 664.488 75.1C674.238 69.4667 686.046 66.65 699.913 66.65V97.2H692.113C658.963 97.2 642.388 115.183 642.388 151.15V248H612.813V69.9H642.388V98.825ZM723.003 158.3C723.003 140.1 726.687 124.175 734.053 110.525C741.42 96.6583 751.495 85.9333 764.278 78.35C777.278 70.7667 791.687 66.975 807.503 66.975C823.103 66.975 836.645 70.3333 848.128 77.05C859.612 83.7667 868.17 92.2167 873.803 102.4V69.9H903.703V248H873.803V214.85C867.953 225.25 859.178 233.917 847.478 240.85C835.995 247.567 822.562 250.925 807.178 250.925C791.362 250.925 777.062 247.025 764.278 239.225C751.495 231.425 741.42 220.483 734.053 206.4C726.687 192.317 723.003 176.283 723.003 158.3ZM873.803 158.625C873.803 145.192 871.095 133.492 865.678 123.525C860.262 113.558 852.895 105.975 843.578 100.775C834.478 95.3583 824.403 92.65 813.353 92.65C802.303 92.65 792.228 95.25 783.128 100.45C774.028 105.65 766.77 113.233 761.353 123.2C755.937 133.167 753.228 144.867 753.228 158.3C753.228 171.95 755.937 183.867 761.353 194.05C766.77 204.017 774.028 211.708 783.128 217.125C792.228 222.325 802.303 224.925 813.353 224.925C824.403 224.925 834.478 222.325 843.578 217.125C852.895 211.708 860.262 204.017 865.678 194.05C871.095 183.867 873.803 172.058 873.803 158.625ZM968.957 40.975C963.324 40.975 958.557 39.025 954.657 35.125C950.757 31.225 948.807 26.4583 948.807 20.825C948.807 15.1917 950.757 10.425 954.657 6.52499C958.557 2.62499 963.324 0.674988 968.957 0.674988C974.374 0.674988 978.924 2.62499 982.607 6.52499C986.507 10.425 988.457 15.1917 988.457 20.825C988.457 26.4583 986.507 31.225 982.607 35.125C978.924 39.025 974.374 40.975 968.957 40.975ZM983.257 69.9V248H953.682V69.9H983.257ZM1120.44 66.65C1142.1 66.65 1159.65 73.2583 1173.09 86.475C1186.52 99.475 1193.24 118.325 1193.24 143.025V248H1163.99V147.25C1163.99 129.483 1159.55 115.942 1150.66 106.625C1141.78 97.0917 1129.65 92.325 1114.26 92.325C1098.66 92.325 1086.2 97.2 1076.89 106.95C1067.79 116.7 1063.24 130.892 1063.24 149.525V248H1033.66V69.9H1063.24V95.25C1069.09 86.15 1077 79.1083 1086.96 74.125C1097.15 69.1417 1108.3 66.65 1120.44 66.65Z" fill="#656565" fill-opacity="0.2"/>
</svg>
